<svg width="32" height="32" viewBox="0 0 32 32" fill="none" xmlns="http://www.w3.org/2000/svg">
<g clip-path="url(#clip0_682_1209)">
<mask id="mask0_682_1209" style="mask-type:alpha" maskUnits="userSpaceOnUse" x="0" y="0" width="32" height="32">
<rect width="32" height="32" rx="8" fill="white"/>
</mask>
<g mask="url(#mask0_682_1209)">
<rect width="32" height="32" fill="white"/>
</g>
<mask id="mask1_682_1209" style="mask-type:alpha" maskUnits="userSpaceOnUse" x="0" y="0" width="32" height="32">
<rect width="32" height="32" rx="8" fill="white"/>
</mask>
<g mask="url(#mask1_682_1209)">
<rect x="24" width="8" height="8" fill="#64748B" fill-opacity="0.3"/>
<rect x="16" width="8" height="8" fill="#64748B" fill-opacity="0.5"/>
<rect x="24" y="8" width="8" height="8" fill="#64748B" fill-opacity="0.5"/>
<rect x="8" width="8" height="8" fill="#059669" fill-opacity="0.7"/>
<rect x="16" y="8" width="8" height="8" fill="#059669" fill-opacity="0.7"/>
<rect x="24" y="16" width="8" height="8" fill="#059669" fill-opacity="0.7"/>
<rect width="8" height="8" fill="#2563EB" fill-opacity="0.9"/>
<rect x="8" y="8" width="8" height="8" fill="#2563EB" fill-opacity="0.9"/>
<rect x="16" y="16" width="8" height="8" fill="#2563EB" fill-opacity="0.9"/>
<rect y="8" width="8" height="8" fill="#7C3AED" fill-opacity="0.7"/>
<rect x="8" y="16" width="8" height="8" fill="#7C3AED" fill-opacity="0.7"/>
<rect y="16" width="8" height="8" fill="#DB2777" fill-opacity="0.5"/>
<rect x="8" y="24" width="8" height="8" fill="#DB2777" fill-opacity="0.5"/>
<rect y="24" width="8" height="8" fill="#DB2777" fill-opacity="0.3"/>
<rect x="16" y="24" width="8" height="8" fill="#7C3AED" fill-opacity="0.7"/>
<rect x="24" y="24" width="8" height="8" fill="#2563EB" fill-opacity="0.9"/>
</g>
</g>
<defs>
<clipPath id="clip0_682_1209">
<rect width="32" height="32" fill="white"/>
</clipPath>
</defs>
</svg>
